# xmcd
#
# Track frame offsets: 
#        150
#        17835
#        35551
#        52767
#        69031
#        82071
#        100857
#        118220
#        134165
#        148264
#        167523
#        181722
#        199633
#
# Disc length: 2891 seconds
#
# Revision: 3
# Processed by: cddbd v1.5.2PL0 Copyright (c) Steve Scherf et al.
# Submitted via: ExactAudioCopy v1.1
#
DISCID=b10b490d
DTITLE=鄧紫棋 - G. E. M. The Best of 2008 - 2012 CD2
DYEAR=2013
DGENRE=pop
TTITLE0=Where Did U Go
TTITLE1=Get Over You
TTITLE2=Good To Be Bad
TTITLE3=What Have U Done
TTITLE4=想講你知
TTITLE5=我的秘密 My Secret
TTITLE6=奇蹟
TTITLE7=塞納河
TTITLE8=Oh Boy
TTITLE9=Twinkle II
TTITLE10=18
TTITLE11=A.I.N.Y. (Live Piano Version)
TTITLE12=奇蹟 (Acoustic Mix)
EXTD=
EXTT0=
EXTT1=
EXTT2=
EXTT3=
EXTT4=
EXTT5=
EXTT6=
EXTT7=
EXTT8=
EXTT9=
EXTT10=
EXTT11=
EXTT12=
PLAYORDER=
